<?xml version="1.0"?>
<!DOCTYPE svg PUBLIC "-//W3C//DTD SVG 1.1//EN" "http://www.w3.org/Graphics/SVG/1.1/DTD/svg11.dtd">
<svg xmlns="http://www.w3.org/2000/svg" xmlns:xl="http://www.w3.org/1999/xlink" version="1.1" viewBox="112 278 928 596" width="928pt" height="596pt"><metadata xmlns:dc="http://purl.org/dc/elements/1.1/"><dc:date>2013-10-07 18:36Z</dc:date><!-- Produced by OmniGraffle Professional 5.4.2 --></metadata><defs></defs><g stroke="none" stroke-opacity="1" stroke-dasharray="none" fill="none" fill-opacity="1"><title>Canvas 3</title><rect fill="white" width="1306" height="936"/><g><title>Layer 1</title><rect x="144" y="288" width="864" height="576" fill="white"/><path d="M 378 288 L 774 288 C 823.70563 288 864 328.29437 864 378 L 864 774 C 864 823.70563 823.70563 864 774 864 L 378 864 C 328.29437 864 288 823.70563 288 774 C 288 774 288 774 288 773.99998 L 288 378 C 288 328.29437 328.29437 288 378 288 C 378 288 378 288 378 288 Z" stroke="#032c41" stroke-opacity=".5" stroke-linecap="round" stroke-linejoin="round" stroke-width="18"/><rect x="540" y="432" width="72" height="288" fill="#032c41"/><path d="M 279 432 L 144 432 L 288 720 L 432 432 L 297 432" stroke="white" stroke-linecap="butt" stroke-linejoin="miter" stroke-width="8"/><path d="M 144 432 L 432 432 L 288 720 Z" fill="#032c41"/><path d="M 279 432 L 297 432 L 288 720 Z" fill="white"/><path d="M 855 720 L 720 720 L 864 432 L 1008 720 L 873 720" stroke="white" stroke-linecap="butt" stroke-linejoin="miter" stroke-width="8"/><path d="M 720 720 L 1008 720 L 864 432 Z" fill="#032c41"/><path d="M 855 720 L 873 720 L 864 432 Z" fill="white"/></g></g></svg>
